# xmcd CD database file
#
# Track frame offsets:
#	150
#	13853
#	24465
#	35688
#	50537
#	67209
#	73295
#	86330
#	104452
#	117647
#
# Disc length: 1907 seconds
#
# Revision: 2
# Processed by: cddbd v1.5.1PL0 Copyright (c) Steve Scherf et al.
# Submitted via: CDex 1.51
#
DISCID=9307710a
DTITLE=Dude Machine - This Boot's for You
DYEAR=2004
DGENRE=Country
TTITLE0=I'm Back
TTITLE1=Eff the French
TTITLE2=He Had an Ace
TTITLE3=That's My Baby
TTITLE4=That Man
TTITLE5=Zeppelin Rules
TTITLE6=Do the Cobra
TTITLE7=Old Boo
TTITLE8=Group of the Year
TTITLE9=I Saw the Light
EXTD=YEAR: 2004
EXTT0=
EXTT1=
EXTT2=
EXTT3=
EXTT4=
EXTT5=
EXTT6=
EXTT7=
EXTT8=
EXTT9=
PLAYORDER=
